<svg width="24" height="20" viewBox="0 0 24 20" fill="none" xmlns="http://www.w3.org/2000/svg">
<path d="M24 2.55923C23.1167 2.95065 22.1689 3.2161 21.173 3.33461C22.1899 2.7257 22.9682 1.7599 23.3371 0.612607C22.3833 1.17649 21.3305 1.58594 20.2087 1.8079C19.3104 0.849587 18.0326 0.252686 16.6153 0.252686C13.8964 0.252686 11.6918 2.45727 11.6918 5.17476C11.6918 5.56017 11.7353 5.9366 11.8193 6.29657C7.72804 6.09108 4.10023 4.13096 1.67219 1.15249C1.24776 1.87837 1.00631 2.72417 1.00631 3.62704C1.00631 5.33523 1.87615 6.84245 3.19592 7.72425C2.38905 7.69727 1.63019 7.47531 0.965835 7.10637V7.16786C0.965835 9.55241 2.66352 11.5425 4.91458 11.9955C4.50215 12.1064 4.06725 12.1679 3.61733 12.1679C3.29941 12.1679 2.99195 12.1364 2.6905 12.0764C3.31737 14.0336 5.13505 15.4568 7.28866 15.4958C5.60447 16.8156 3.48086 17.5999 1.17431 17.5999C0.776894 17.5999 0.385443 17.5759 3.05176e-05 17.5324C2.17913 18.9317 4.76615 19.7475 7.54663 19.7475C16.6034 19.7475 21.554 12.2459 21.554 5.74017L21.5375 5.1028C22.5048 4.41288 23.3416 3.54606 24 2.55923Z" fill="white" fill-opacity="0.6"/>
</svg>
